<svg width="418" height="281" xmlns="http://www.w3.org/2000/svg" xmlns:xlink="http://www.w3.org/1999/xlink" xml:space="preserve" overflow="hidden"><defs><clipPath id="clip0"><rect x="0" y="0" width="418" height="281"/></clipPath><clipPath id="clip1"><rect x="0" y="0" width="418" height="281"/></clipPath></defs><g clip-path="url(#clip0)"><g clip-path="url(#clip1)"><path d="M0 0 501.5 0 501.5 313.437 0 313.437Z" fill="#F8F9FA" fill-rule="nonzero" fill-opacity="1" transform="matrix(1 0 0 1.0012 0 -32.8122)"/><text fill="#000000" fill-opacity="1" font-family="Arial,Arial_MSFontService,sans-serif" font-style="normal" font-variant="normal" font-weight="700" font-stretch="normal" font-size="14" text-anchor="start" direction="ltr" writing-mode="lr-tb" unicode-bidi="normal" text-decoration="none" transform="matrix(0.626875 0 0 0.627624 31.3437 11)">Input features (1, 10):</text><path d="M31.3437 50.15 56.4187 50.15 56.4187 75.225 31.3437 75.225Z" stroke="#1565C0" stroke-width="0.626875" stroke-linecap="butt" stroke-linejoin="miter" stroke-miterlimit="4" stroke-opacity="1" fill="#90CAF9" fill-rule="nonzero" fill-opacity="1" transform="matrix(1 0 0 1.0012 0 -32.8122)"/><path d="M56.4187 50.15 81.4937 50.15 81.4937 75.225 56.4187 75.225Z" stroke="#1565C0" stroke-width="0.626875" stroke-linecap="butt" stroke-linejoin="miter" stroke-miterlimit="4" stroke-opacity="1" fill="#90CAF9" fill-rule="nonzero" fill-opacity="1" transform="matrix(1 0 0 1.0012 0 -32.8122)"/><path d="M81.4937 50.15 106.569 50.15 106.569 75.225 81.4937 75.225Z" stroke="#1565C0" stroke-width="0.626875" stroke-linecap="butt" stroke-linejoin="miter" stroke-miterlimit="4" stroke-opacity="1" fill="#90CAF9" fill-rule="nonzero" fill-opacity="1" transform="matrix(1 0 0 1.0012 0 -32.8122)"/><path d="M106.569 50.15 131.644 50.15 131.644 75.225 106.569 75.225Z" stroke="#1565C0" stroke-width="0.626875" stroke-linecap="butt" stroke-linejoin="miter" stroke-miterlimit="4" stroke-opacity="1" fill="#90CAF9" fill-rule="nonzero" fill-opacity="1" transform="matrix(1 0 0 1.0012 0 -32.8122)"/><path d="M131.644 50.15 156.719 50.15 156.719 75.225 131.644 75.225Z" stroke="#1565C0" stroke-width="0.626875" stroke-linecap="butt" stroke-linejoin="miter" stroke-miterlimit="4" stroke-opacity="1" fill="#90CAF9" fill-rule="nonzero" fill-opacity="1" transform="matrix(1 0 0 1.0012 0 -32.8122)"/><path d="M156.719 50.15 181.794 50.15 181.794 75.225 156.719 75.225Z" stroke="#1565C0" stroke-width="0.626875" stroke-linecap="butt" stroke-linejoin="miter" stroke-miterlimit="4" stroke-opacity="1" fill="#90CAF9" fill-rule="nonzero" fill-opacity="1" transform="matrix(1 0 0 1.0012 0 -32.8122)"/><path d="M181.794 50.15 206.869 50.15 206.869 75.225 181.794 75.225Z" stroke="#1565C0" stroke-width="0.626875" stroke-linecap="butt" stroke-linejoin="miter" stroke-miterlimit="4" stroke-opacity="1" fill="#90CAF9" fill-rule="nonzero" fill-opacity="1" transform="matrix(1 0 0 1.0012 0 -32.8122)"/><path d="M206.869 50.15 231.944 50.15 231.944 75.225 206.869 75.225Z" stroke="#1565C0" stroke-width="0.626875" stroke-linecap="butt" stroke-linejoin="miter" stroke-miterlimit="4" stroke-opacity="1" fill="#90CAF9" fill-rule="nonzero" fill-opacity="1" transform="matrix(1 0 0 1.0012 0 -32.8122)"/><path d="M231.944 50.15 257.019 50.15 257.019 75.225 231.944 75.225Z" stroke="#1565C0" stroke-width="0.626875" stroke-linecap="butt" stroke-linejoin="miter" stroke-miterlimit="4" stroke-opacity="1" fill="#90CAF9" fill-rule="nonzero" fill-opacity="1" transform="matrix(1 0 0 1.0012 0 -32.8122)"/><path d="M257.019 50.15 282.094 50.15 282.094 75.225 257.019 75.225Z" stroke="#1565C0" stroke-width="0.626875" stroke-linecap="butt" stroke-linejoin="miter" stroke-miterlimit="4" stroke-opacity="1" fill="#90CAF9" fill-rule="nonzero" fill-opacity="1" transform="matrix(1 0 0 1.0012 0 -32.8122)"/><text fill="#000000" fill-opacity="1" font-family="Arial,Arial_MSFontService,sans-serif" font-style="normal" font-variant="normal" font-weight="400" font-stretch="normal" font-size="12" text-anchor="start" direction="ltr" writing-mode="lr-tb" unicode-bidi="normal" text-decoration="none" transform="matrix(0.626875 0 0 0.627624 41.8125 33)">0</text><text fill="#000000" fill-opacity="1" font-family="Arial,Arial_MSFontService,sans-serif" font-style="normal" font-variant="normal" font-weight="400" font-stretch="normal" font-size="12" text-anchor="start" direction="ltr" writing-mode="lr-tb" unicode-bidi="normal" text-decoration="none" transform="matrix(0.626875 0 0 0.627624 66.8875 33)">1</text><text fill="#000000" fill-opacity="1" font-family="Arial,Arial_MSFontService,sans-serif" font-style="normal" font-variant="normal" font-weight="400" font-stretch="normal" font-size="12" text-anchor="start" direction="ltr" writing-mode="lr-tb" unicode-bidi="normal" text-decoration="none" transform="matrix(0.626875 0 0 0.627624 91.9625 33)">2</text><text fill="#000000" fill-opacity="1" font-family="Arial,Arial_MSFontService,sans-serif" font-style="normal" font-variant="normal" font-weight="400" font-stretch="normal" font-size="12" text-anchor="start" direction="ltr" writing-mode="lr-tb" unicode-bidi="normal" text-decoration="none" transform="matrix(0.626875 0 0 0.627624 117.037 33)">3</text><text fill="#000000" fill-opacity="1" font-family="Arial,Arial_MSFontService,sans-serif" font-style="normal" font-variant="normal" font-weight="400" font-stretch="normal" font-size="12" text-anchor="start" direction="ltr" writing-mode="lr-tb" unicode-bidi="normal" text-decoration="none" transform="matrix(0.626875 0 0 0.627624 142.112 33)">4</text><text fill="#000000" fill-opacity="1" font-family="Arial,Arial_MSFontService,sans-serif" font-style="normal" font-variant="normal" font-weight="400" font-stretch="normal" font-size="12" text-anchor="start" direction="ltr" writing-mode="lr-tb" unicode-bidi="normal" text-decoration="none" transform="matrix(0.626875 0 0 0.627624 167.187 33)">5</text><text fill="#000000" fill-opacity="1" font-family="Arial,Arial_MSFontService,sans-serif" font-style="normal" font-variant="normal" font-weight="400" font-stretch="normal" font-size="12" text-anchor="start" direction="ltr" writing-mode="lr-tb" unicode-bidi="normal" text-decoration="none" transform="matrix(0.626875 0 0 0.627624 192.262 33)">6</text><text fill="#000000" fill-opacity="1" font-family="Arial,Arial_MSFontService,sans-serif" font-style="normal" font-variant="normal" font-weight="400" font-stretch="normal" font-size="12" text-anchor="start" direction="ltr" writing-mode="lr-tb" unicode-bidi="normal" text-decoration="none" transform="matrix(0.626875 0 0 0.627624 217.337 33)">7</text><text fill="#000000" fill-opacity="1" font-family="Arial,Arial_MSFontService,sans-serif" font-style="normal" font-variant="normal" font-weight="400" font-stretch="normal" font-size="12" text-anchor="start" direction="ltr" writing-mode="lr-tb" unicode-bidi="normal" text-decoration="none" transform="matrix(0.626875 0 0 0.627624 242.412 33)">8</text><text fill="#000000" fill-opacity="1" font-family="Arial,Arial_MSFontService,sans-serif" font-style="normal" font-variant="normal" font-weight="400" font-stretch="normal" font-size="12" text-anchor="start" direction="ltr" writing-mode="lr-tb" unicode-bidi="normal" text-decoration="none" transform="matrix(0.626875 0 0 0.627624 267.487 33)">9</text><text fill="#000000" fill-opacity="1" font-family="Arial,Arial_MSFontService,sans-serif" font-style="normal" font-variant="normal" font-weight="700" font-stretch="normal" font-size="14" text-anchor="start" direction="ltr" writing-mode="lr-tb" unicode-bidi="normal" text-decoration="none" transform="matrix(0.626875 0 0 0.627624 166.373 63)">Kernel-Gen Net</text><path d="M180.226 106.569C183.689 106.569 186.495 109.375 186.495 112.837L186.495 162.987C186.495 166.45 183.689 169.256 180.226 169.256L67.389 169.256C63.9269 169.256 61.1203 166.45 61.1203 162.987L61.1203 112.837C61.1203 109.375 63.9269 106.569 67.389 106.569Z" stroke="#FF9800" stroke-width="1.25375" stroke-linecap="butt" stroke-linejoin="miter" stroke-miterlimit="4" stroke-opacity="1" fill="#FFECB3" fill-rule="nonzero" fill-opacity="1" transform="matrix(1 0 0 1.0012 0 -32.8122)"/><text fill="#000000" fill-opacity="1" font-family="Arial,Arial_MSFontService,sans-serif" font-style="normal" font-variant="normal" font-weight="400" font-stretch="normal" font-size="12" text-anchor="start" direction="ltr" writing-mode="lr-tb" unicode-bidi="normal" text-decoration="none" transform="matrix(0.626875 0 0 0.627624 98.7327 90)">1x1 Conv (</text><text fill="#000000" fill-opacity="1" font-family="Microsoft YaHei,Microsoft YaHei_MSFontService,sans-serif" font-style="normal" font-variant="normal" font-weight="400" font-stretch="normal" font-size="12" text-anchor="start" direction="ltr" writing-mode="lr-tb" unicode-bidi="normal" text-decoration="none" transform="matrix(0.626875 0 0 0.627624 135.091 90)">降维</text><text fill="#000000" fill-opacity="1" font-family="Arial,Arial_MSFontService,sans-serif" font-style="normal" font-variant="normal" font-weight="400" font-stretch="normal" font-size="12" text-anchor="start" direction="ltr" writing-mode="lr-tb" unicode-bidi="normal" text-decoration="none" transform="matrix(0.626875 0 0 0.627624 150.136 90)">)</text><text fill="#000000" fill-opacity="1" font-family="Arial,Arial_MSFontService,sans-serif" font-style="normal" font-variant="normal" font-weight="400" font-stretch="normal" font-size="12" text-anchor="start" direction="ltr" writing-mode="lr-tb" unicode-bidi="normal" text-decoration="none" transform="matrix(0.626875 0 0 0.627624 90.6461 102)">BatchNorm + Swish</text><text fill="#000000" fill-opacity="1" font-family="Arial,Arial_MSFontService,sans-serif" font-style="normal" font-variant="normal" font-weight="400" font-stretch="normal" font-size="12" text-anchor="start" direction="ltr" writing-mode="lr-tb" unicode-bidi="normal" text-decoration="none" transform="matrix(0.626875 0 0 0.627624 102.682 115)">Dropout(0.2)</text><text fill="#000000" fill-opacity="1" font-family="Arial,Arial_MSFontService,sans-serif" font-style="normal" font-variant="normal" font-weight="400" font-stretch="normal" font-size="12" text-anchor="start" direction="ltr" writing-mode="lr-tb" unicode-bidi="normal" text-decoration="none" transform="matrix(0.626875 0 0 0.627624 95.9118 127)">1x1 Conv (</text><text fill="#000000" fill-opacity="1" font-family="Microsoft YaHei,Microsoft YaHei_MSFontService,sans-serif" font-style="normal" font-variant="normal" font-weight="400" font-stretch="normal" font-size="12" text-anchor="start" direction="ltr" writing-mode="lr-tb" unicode-bidi="normal" text-decoration="none" transform="matrix(0.626875 0 0 0.627624 132.271 127)">生成核</text><text fill="#000000" fill-opacity="1" font-family="Arial,Arial_MSFontService,sans-serif" font-style="normal" font-variant="normal" font-weight="400" font-stretch="normal" font-size="12" text-anchor="start" direction="ltr" writing-mode="lr-tb" unicode-bidi="normal" text-decoration="none" transform="matrix(0.626875 0 0 0.627624 154.838 127)">)</text><path d="M156.719 106.569 153.584 100.3 159.853 100.3 156.719 106.569Z" fill="#1565C0" fill-rule="nonzero" fill-opacity="1" transform="matrix(1 0 0 1.0012 0 -32.8122)"/><path d="M120.861 169.256 120.861 185.053" stroke="#FF9800" stroke-width="1.25375" stroke-linecap="butt" stroke-linejoin="miter" stroke-miterlimit="4" stroke-opacity="1" fill="none" fill-rule="nonzero" transform="matrix(1 0 0 1.0012 0 -32.8122)"/><path d="M120.861 190.445 117.727 184.991 123.996 184.991 120.861 190.445Z" fill="#FF9800" fill-rule="nonzero" fill-opacity="1" transform="matrix(1 0 0 1.0012 0 -32.8122)"/><path d="M9.40312 213.137 31.3437 213.137 31.3437 235.078 9.40312 235.078Z" stroke="#FFA000" stroke-width="0.626875" stroke-linecap="butt" stroke-linejoin="miter" stroke-miterlimit="4" stroke-opacity="1" fill="#FFF176" fill-rule="nonzero" fill-opacity="1" transform="matrix(1 0 0 1.0012 0 -32.8122)"/><path d="M31.3437 213.137 53.2843 213.137 53.2843 235.078 31.3437 235.078Z" stroke="#FFA000" stroke-width="0.626875" stroke-linecap="butt" stroke-linejoin="miter" stroke-miterlimit="4" stroke-opacity="1" fill="#FFF59D" fill-rule="nonzero" fill-opacity="1" transform="matrix(1 0 0 1.0012 0 -32.8122)"/><path d="M53.2843 213.137 75.225 213.137 75.225 235.078 53.2843 235.078Z" stroke="#FFA000" stroke-width="0.626875" stroke-linecap="butt" stroke-linejoin="miter" stroke-miterlimit="4" stroke-opacity="1" fill="#FFF176" fill-rule="nonzero" fill-opacity="1" transform="matrix(1 0 0 1.0012 0 -32.8122)"/><text fill="#000000" fill-opacity="1" font-family="Microsoft YaHei,Microsoft YaHei_MSFontService,sans-serif" font-style="normal" font-variant="normal" font-weight="400" font-stretch="normal" font-size="12" text-anchor="start" direction="ltr" writing-mode="lr-tb" unicode-bidi="normal" text-decoration="none" transform="matrix(0.626875 0 0 0.627624 28.9616 174)">位置</text><text fill="#000000" fill-opacity="1" font-family="Arial,Arial_MSFontService,sans-serif" font-style="normal" font-variant="normal" font-weight="400" font-stretch="normal" font-size="12" text-anchor="start" direction="ltr" writing-mode="lr-tb" unicode-bidi="normal" text-decoration="none" transform="matrix(0.626875 0 0 0.627624 44.0066 174)">2</text><text fill="#000000" fill-opacity="1" font-family="Microsoft YaHei,Microsoft YaHei_MSFontService,sans-serif" font-style="normal" font-variant="normal" font-weight="400" font-stretch="normal" font-size="12" text-anchor="start" direction="ltr" writing-mode="lr-tb" unicode-bidi="normal" text-decoration="none" transform="matrix(0.626875 0 0 0.627624 48.2067 174)">的核</text><path d="M90.8968 213.137 112.837 213.137 112.837 235.078 90.8968 235.078Z" stroke="#E65100" stroke-width="0.626875" stroke-linecap="butt" stroke-linejoin="miter" stroke-miterlimit="4" stroke-opacity="1" fill="#FFB74D" fill-rule="nonzero" fill-opacity="1" transform="matrix(1 0 0 1.0012 0 -32.8122)"/><path d="M112.837 213.137 134.778 213.137 134.778 235.078 112.837 235.078Z" stroke="#E65100" stroke-width="0.626875" stroke-linecap="butt" stroke-linejoin="miter" stroke-miterlimit="4" stroke-opacity="1" fill="#FFCC80" fill-rule="nonzero" fill-opacity="1" transform="matrix(1 0 0 1.0012 0 -32.8122)"/><path d="M134.778 213.137 156.719 213.137 156.719 235.078 134.778 235.078Z" stroke="#E65100" stroke-width="0.626875" stroke-linecap="butt" stroke-linejoin="miter" stroke-miterlimit="4" stroke-opacity="1" fill="#FFB74D" fill-rule="nonzero" fill-opacity="1" transform="matrix(1 0 0 1.0012 0 -32.8122)"/><text fill="#000000" fill-opacity="1" font-family="Microsoft YaHei,Microsoft YaHei_MSFontService,sans-serif" font-style="normal" font-variant="normal" font-weight="400" font-stretch="normal" font-size="12" text-anchor="start" direction="ltr" writing-mode="lr-tb" unicode-bidi="normal" text-decoration="none" transform="matrix(0.626875 0 0 0.627624 110.455 174)">位置</text><text fill="#000000" fill-opacity="1" font-family="Arial,Arial_MSFontService,sans-serif" font-style="normal" font-variant="normal" font-weight="400" font-stretch="normal" font-size="12" text-anchor="start" direction="ltr" writing-mode="lr-tb" unicode-bidi="normal" text-decoration="none" transform="matrix(0.626875 0 0 0.627624 125.5 174)">5</text><text fill="#000000" fill-opacity="1" font-family="Microsoft YaHei,Microsoft YaHei_MSFontService,sans-serif" font-style="normal" font-variant="normal" font-weight="400" font-stretch="normal" font-size="12" text-anchor="start" direction="ltr" writing-mode="lr-tb" unicode-bidi="normal" text-decoration="none" transform="matrix(0.626875 0 0 0.627624 129.7 174)">的核</text><path d="M172.391 213.137 194.331 213.137 194.331 235.078 172.391 235.078Z" stroke="#558B2F" stroke-width="0.626875" stroke-linecap="butt" stroke-linejoin="miter" stroke-miterlimit="4" stroke-opacity="1" fill="#AED581" fill-rule="nonzero" fill-opacity="1" transform="matrix(1 0 0 1.0012 0 -32.8122)"/><path d="M194.331 213.137 216.272 213.137 216.272 235.078 194.331 235.078Z" stroke="#558B2F" stroke-width="0.626875" stroke-linecap="butt" stroke-linejoin="miter" stroke-miterlimit="4" stroke-opacity="1" fill="#C5E1A5" fill-rule="nonzero" fill-opacity="1" transform="matrix(1 0 0 1.0012 0 -32.8122)"/><path d="M216.272 213.137 238.212 213.137 238.212 235.078 216.272 235.078Z" stroke="#558B2F" stroke-width="0.626875" stroke-linecap="butt" stroke-linejoin="miter" stroke-miterlimit="4" stroke-opacity="1" fill="#AED581" fill-rule="nonzero" fill-opacity="1" transform="matrix(1 0 0 1.0012 0 -32.8122)"/><text fill="#000000" fill-opacity="1" font-family="Microsoft YaHei,Microsoft YaHei_MSFontService,sans-serif" font-style="normal" font-variant="normal" font-weight="400" font-stretch="normal" font-size="12" text-anchor="start" direction="ltr" writing-mode="lr-tb" unicode-bidi="normal" text-decoration="none" transform="matrix(0.626875 0 0 0.627624 191.949 174)">位置</text><text fill="#000000" fill-opacity="1" font-family="Arial,Arial_MSFontService,sans-serif" font-style="normal" font-variant="normal" font-weight="400" font-stretch="normal" font-size="12" text-anchor="start" direction="ltr" writing-mode="lr-tb" unicode-bidi="normal" text-decoration="none" transform="matrix(0.626875 0 0 0.627624 206.994 174)">8</text><text fill="#000000" fill-opacity="1" font-family="Microsoft YaHei,Microsoft YaHei_MSFontService,sans-serif" font-style="normal" font-variant="normal" font-weight="400" font-stretch="normal" font-size="12" text-anchor="start" direction="ltr" writing-mode="lr-tb" unicode-bidi="normal" text-decoration="none" transform="matrix(0.626875 0 0 0.627624 211.194 174)">的核</text><text fill="#000000" fill-opacity="1" font-family="Arial,Arial_MSFontService,sans-serif" font-style="normal" font-variant="normal" font-weight="700" font-stretch="normal" font-size="14" text-anchor="start" direction="ltr" writing-mode="lr-tb" unicode-bidi="normal" text-decoration="none" transform="matrix(0.626875 0 0 0.627624 335.378 76)">extract_patches</text><path d="M388.662 121.488C392.124 121.488 394.931 124.295 394.931 127.757L394.931 165.37C394.931 168.832 392.124 171.638 388.662 171.638L275.825 171.638C272.363 171.638 269.556 168.832 269.556 165.37L269.556 127.757C269.556 124.295 272.363 121.488 275.825 121.488Z" stroke="#8E24AA" stroke-width="1.25375" stroke-linecap="butt" stroke-linejoin="miter" stroke-miterlimit="4" stroke-opacity="1" fill="#E1BEE7" fill-rule="nonzero" fill-opacity="1" transform="matrix(1 0 0 1.0012 0 -32.8122)"/><text fill="#000000" fill-opacity="1" font-family="Microsoft YaHei,Microsoft YaHei_MSFontService,sans-serif" font-style="normal" font-variant="normal" font-weight="400" font-stretch="normal" font-size="12" text-anchor="start" direction="ltr" writing-mode="lr-tb" unicode-bidi="normal" text-decoration="none" transform="matrix(0.626875 0 0 0.627624 275.386 109)">对每个位置提取</text><text fill="#000000" fill-opacity="1" font-family="Arial,Arial_MSFontService,sans-serif" font-style="normal" font-variant="normal" font-weight="400" font-stretch="normal" font-size="12" text-anchor="start" direction="ltr" writing-mode="lr-tb" unicode-bidi="normal" text-decoration="none" transform="matrix(0.626875 0 0 0.627624 328.043 109)">kernel_size</text><text fill="#000000" fill-opacity="1" font-family="Microsoft YaHei,Microsoft YaHei_MSFontService,sans-serif" font-style="normal" font-variant="normal" font-weight="400" font-stretch="normal" font-size="12" text-anchor="start" direction="ltr" writing-mode="lr-tb" unicode-bidi="normal" text-decoration="none" transform="matrix(0.626875 0 0 0.627624 366.095 109)">大小的</text><text fill="#000000" fill-opacity="1" font-family="Microsoft YaHei,Microsoft YaHei_MSFontService,sans-serif" font-style="normal" font-variant="normal" font-weight="400" font-stretch="normal" font-size="12" text-anchor="start" direction="ltr" writing-mode="lr-tb" unicode-bidi="normal" text-decoration="none" transform="matrix(0.626875 0 0 0.627624 296.01 127)">局部区域</text><text fill="#000000" fill-opacity="1" font-family="Arial,Arial_MSFontService,sans-serif" font-style="normal" font-variant="normal" font-weight="400" font-stretch="normal" font-size="12" text-anchor="start" direction="ltr" writing-mode="lr-tb" unicode-bidi="normal" text-decoration="none" transform="matrix(0.626875 0 0 0.627624 326.1 127)"> (</text><text fill="#000000" fill-opacity="1" font-family="Microsoft YaHei,Microsoft YaHei_MSFontService,sans-serif" font-style="normal" font-variant="normal" font-weight="400" font-stretch="normal" font-size="12" text-anchor="start" direction="ltr" writing-mode="lr-tb" unicode-bidi="normal" text-decoration="none" transform="matrix(0.626875 0 0 0.627624 330.676 127)">窗口大小</text><text fill="#000000" fill-opacity="1" font-family="Arial,Arial_MSFontService,sans-serif" font-style="normal" font-variant="normal" font-weight="400" font-stretch="normal" font-size="12" text-anchor="start" direction="ltr" writing-mode="lr-tb" unicode-bidi="normal" text-decoration="none" transform="matrix(0.626875 0 0 0.627624 360.766 127)">=3)</text><path d="M332.244 96.4133 332.244 121.488" stroke="#1565C0" stroke-width="1.25375" stroke-linecap="butt" stroke-linejoin="miter" stroke-miterlimit="4" stroke-dasharray="3.13437 1.88062" stroke-opacity="1" fill="none" fill-rule="nonzero" transform="matrix(1 0 0 1.0012 0 -32.8122)"/><path d="M332.244 121.488 329.109 115.22 335.378 115.22 332.244 121.488Z" fill="#1565C0" fill-rule="nonzero" fill-opacity="1" transform="matrix(1 0 0 1.0012 0 -32.8122)"/><path d="M332.244 171.638 332.244 190.445" stroke="#8E24AA" stroke-width="1.25375" stroke-linecap="butt" stroke-linejoin="miter" stroke-miterlimit="4" stroke-opacity="1" fill="none" fill-rule="nonzero" transform="matrix(1 0 0 1.0012 0 -32.8122)"/><path d="M332.244 190.445 329.109 184.176 335.378 184.176 332.244 190.445Z" fill="#8E24AA" fill-rule="nonzero" fill-opacity="1" transform="matrix(1 0 0 1.0012 0 -32.8122)"/><text fill="#000000" fill-opacity="1" font-family="Arial,Arial_MSFontService,sans-serif" font-style="normal" font-variant="normal" font-weight="700" font-stretch="normal" font-size="14" text-anchor="start" direction="ltr" writing-mode="lr-tb" unicode-bidi="normal" text-decoration="none" transform="matrix(0.626875 0 0 0.627624 338.888 230)">Involution</text><path d="M390.104 191.51C393.566 191.51 396.373 194.317 396.373 197.779L396.373 241.66C396.373 245.122 393.566 247.929 390.104 247.929L277.267 247.929C273.805 247.929 270.998 245.122 270.998 241.66L270.998 197.779C270.998 194.317 273.805 191.51 277.267 191.51Z" stroke="#388E3C" stroke-width="1.25375" stroke-linecap="butt" stroke-linejoin="miter" stroke-miterlimit="4" stroke-opacity="1" fill="#C8E6C9" fill-rule="nonzero" fill-opacity="1" transform="matrix(1 0 0 1.0012 0 -32.8122)"/><text fill="#000000" fill-opacity="1" font-family="Arial,Arial_MSFontService,sans-serif" font-style="normal" font-variant="normal" font-weight="400" font-stretch="normal" font-size="12" text-anchor="start" direction="ltr" writing-mode="lr-tb" unicode-bidi="normal" text-decoration="none" transform="matrix(0.626875 0 0 0.627624 282.282 175)">1. </text><text fill="#000000" fill-opacity="1" font-family="Microsoft YaHei,Microsoft YaHei_MSFontService,sans-serif" font-style="normal" font-variant="normal" font-weight="400" font-stretch="normal" font-size="12" text-anchor="start" direction="ltr" writing-mode="lr-tb" unicode-bidi="normal" text-decoration="none" transform="matrix(0.626875 0 0 0.627624 290.619 175)">位置特定卷积核</text><text fill="#000000" fill-opacity="1" font-family="Arial,Arial_MSFontService,sans-serif" font-style="normal" font-variant="normal" font-weight="400" font-stretch="normal" font-size="12" text-anchor="start" direction="ltr" writing-mode="lr-tb" unicode-bidi="normal" text-decoration="none" transform="matrix(0.626875 0 0 0.627624 343.277 175)"> × </text><text fill="#000000" fill-opacity="1" font-family="Microsoft YaHei,Microsoft YaHei_MSFontService,sans-serif" font-style="normal" font-variant="normal" font-weight="400" font-stretch="normal" font-size="12" text-anchor="start" direction="ltr" writing-mode="lr-tb" unicode-bidi="normal" text-decoration="none" transform="matrix(0.626875 0 0 0.627624 351.865 175)">局部区域</text><text fill="#000000" fill-opacity="1" font-family="Arial,Arial_MSFontService,sans-serif" font-style="normal" font-variant="normal" font-weight="400" font-stretch="normal" font-size="12" text-anchor="start" direction="ltr" writing-mode="lr-tb" unicode-bidi="normal" text-decoration="none" transform="matrix(0.626875 0 0 0.627624 282.282 189)">2. </text><text fill="#000000" fill-opacity="1" font-family="Microsoft YaHei,Microsoft YaHei_MSFontService,sans-serif" font-style="normal" font-variant="normal" font-weight="400" font-stretch="normal" font-size="12" text-anchor="start" direction="ltr" writing-mode="lr-tb" unicode-bidi="normal" text-decoration="none" transform="matrix(0.626875 0 0 0.627624 290.619 189)">沿</text><text fill="#000000" fill-opacity="1" font-family="Arial,Arial_MSFontService,sans-serif" font-style="normal" font-variant="normal" font-weight="400" font-stretch="normal" font-size="12" text-anchor="start" direction="ltr" writing-mode="lr-tb" unicode-bidi="normal" text-decoration="none" transform="matrix(0.626875 0 0 0.627624 298.142 189)">kernel_size</text><text fill="#000000" fill-opacity="1" font-family="Microsoft YaHei,Microsoft YaHei_MSFontService,sans-serif" font-style="normal" font-variant="normal" font-weight="400" font-stretch="normal" font-size="12" text-anchor="start" direction="ltr" writing-mode="lr-tb" unicode-bidi="normal" text-decoration="none" transform="matrix(0.626875 0 0 0.627624 336.193 189)">维度求和</text><text fill="#000000" fill-opacity="1" font-family="Arial,Arial_MSFontService,sans-serif" font-style="normal" font-variant="normal" font-weight="400" font-stretch="normal" font-size="12" text-anchor="start" direction="ltr" writing-mode="lr-tb" unicode-bidi="normal" text-decoration="none" transform="matrix(0.626875 0 0 0.627624 282.282 203)">3. </text><text fill="#000000" fill-opacity="1" font-family="Microsoft YaHei,Microsoft YaHei_MSFontService,sans-serif" font-style="normal" font-variant="normal" font-weight="400" font-stretch="normal" font-size="12" text-anchor="start" direction="ltr" writing-mode="lr-tb" unicode-bidi="normal" text-decoration="none" transform="matrix(0.626875 0 0 0.627624 290.619 203)">生成输出特征</text><path d="M332.244 248.054 332.244 277.141" stroke="#388E3C" stroke-width="1.25375" stroke-linecap="butt" stroke-linejoin="miter" stroke-miterlimit="4" stroke-opacity="1" fill="none" fill-rule="nonzero" transform="matrix(1 0 0 1.0012 0 -32.8122)"/><path d="M332.244 277.141 327.793 267.425 336.694 267.425 332.244 277.141Z" fill="#388E3C" fill-rule="nonzero" fill-opacity="1" transform="matrix(1 0 0 1.0012 0 -32.8122)"/><path d="M120.861 244.92 120.861 259.463" stroke="#388E3C" stroke-width="1.25375" stroke-linecap="butt" stroke-linejoin="miter" stroke-miterlimit="4" stroke-opacity="1" fill="none" fill-rule="nonzero" transform="matrix(1 0 0 1.0012 0 -32.8122)"/><path d="M120.861 259.463 332.244 259.463" stroke="#388E3C" stroke-width="1.25375" stroke-linecap="butt" stroke-linejoin="miter" stroke-miterlimit="4" stroke-opacity="1" fill="none" fill-rule="nonzero" transform="matrix(1 0 0 1.0012 0 -32.8122)"/><text fill="#000000" fill-opacity="1" font-family="Microsoft YaHei,Microsoft YaHei_MSFontService,sans-serif" font-style="normal" font-variant="normal" font-weight="400" font-stretch="normal" font-size="14" text-anchor="start" direction="ltr" writing-mode="lr-tb" unicode-bidi="normal" text-decoration="none" transform="matrix(0.626875 0 0 0.627624 232.194 260)">输出特征</text><text fill="#000000" fill-opacity="1" font-family="Arial,Arial_MSFontService,sans-serif" font-style="normal" font-variant="normal" font-weight="700" font-stretch="normal" font-size="14" text-anchor="start" direction="ltr" writing-mode="lr-tb" unicode-bidi="normal" text-decoration="none" transform="matrix(0.626875 0 0 0.627624 267.299 260)">:</text><path d="M278.082 277.141 303.157 277.141 303.157 302.216 278.082 302.216Z" stroke="#388E3C" stroke-width="0.626875" stroke-linecap="butt" stroke-linejoin="miter" stroke-miterlimit="4" stroke-opacity="1" fill="#A5D6A7" fill-rule="nonzero" fill-opacity="1" transform="matrix(1 0 0 1.0012 0 -32.8122)"/><path d="M303.157 277.141 328.232 277.141 328.232 302.216 303.157 302.216Z" stroke="#388E3C" stroke-width="0.626875" stroke-linecap="butt" stroke-linejoin="miter" stroke-miterlimit="4" stroke-opacity="1" fill="#A5D6A7" fill-rule="nonzero" fill-opacity="1" transform="matrix(1 0 0 1.0012 0 -32.8122)"/><path d="M328.232 277.141 353.307 277.141 353.307 302.216 328.232 302.216Z" stroke="#388E3C" stroke-width="0.626875" stroke-linecap="butt" stroke-linejoin="miter" stroke-miterlimit="4" stroke-opacity="1" fill="#A5D6A7" fill-rule="nonzero" fill-opacity="1" transform="matrix(1 0 0 1.0012 0 -32.8122)"/><path d="M353.307 277.141 378.382 277.141 378.382 302.216 353.307 302.216Z" stroke="#388E3C" stroke-width="0.626875" stroke-linecap="butt" stroke-linejoin="miter" stroke-miterlimit="4" stroke-opacity="1" fill="#A5D6A7" fill-rule="nonzero" fill-opacity="1" transform="matrix(1 0 0 1.0012 0 -32.8122)"/><text fill="#000000" fill-opacity="1" font-family="Arial,Arial_MSFontService,sans-serif" font-style="normal" font-variant="normal" font-weight="400" font-stretch="normal" font-size="12" text-anchor="start" direction="ltr" writing-mode="lr-tb" unicode-bidi="normal" text-decoration="none" transform="matrix(0.626875 0 0 0.627624 288.488 260)">0</text><text fill="#000000" fill-opacity="1" font-family="Arial,Arial_MSFontService,sans-serif" font-style="normal" font-variant="normal" font-weight="400" font-stretch="normal" font-size="12" text-anchor="start" direction="ltr" writing-mode="lr-tb" unicode-bidi="normal" text-decoration="none" transform="matrix(0.626875 0 0 0.627624 313.563 260)">1</text><text fill="#000000" fill-opacity="1" font-family="Arial,Arial_MSFontService,sans-serif" font-style="normal" font-variant="normal" font-weight="400" font-stretch="normal" font-size="12" text-anchor="start" direction="ltr" writing-mode="lr-tb" unicode-bidi="normal" text-decoration="none" transform="matrix(0.626875 0 0 0.627624 338.638 260)">2</text><text fill="#000000" fill-opacity="1" font-family="Arial,Arial_MSFontService,sans-serif" font-style="normal" font-variant="normal" font-weight="400" font-stretch="normal" font-size="12" text-anchor="start" direction="ltr" writing-mode="lr-tb" unicode-bidi="normal" text-decoration="none" transform="matrix(0.626875 0 0 0.627624 363.713 260)">3</text><path d="M125.375 75.225 125.375 81.4937 156.719 81.4937 156.719 106.569" stroke="#1565C0" stroke-width="1.25375" stroke-linecap="butt" stroke-linejoin="miter" stroke-miterlimit="4" stroke-dasharray="3.13437 1.88062" stroke-opacity="1" fill="none" fill-rule="nonzero" transform="matrix(1 0 0 1.0012 0 -32.8122)"/><path d="M188.062 75.225 188.062 81.4937 332.244 81.4937 332.244 106.569" stroke="#1565C0" stroke-width="1.25375" stroke-linecap="butt" stroke-linejoin="miter" stroke-miterlimit="4" stroke-dasharray="3.13437 1.88062" stroke-opacity="1" fill="none" fill-rule="nonzero" transform="matrix(1 0 0 1.0012 0 -32.8122)"/><path d="M2.82094 190.445 257.019 190.445 257.019 244.356 2.82094 244.356Z" stroke="#091707" stroke-width="0.626875" stroke-linecap="butt" stroke-linejoin="miter" stroke-miterlimit="4" stroke-dasharray="3.13437 1.88062" stroke-opacity="1" fill="none" fill-rule="nonzero" transform="matrix(1 0 0 1.0012 0 -32.8122)"/><text fill="#000000" fill-opacity="1" font-family="Arial,Arial_MSFontService,sans-serif" font-style="normal" font-variant="normal" font-weight="400" font-stretch="normal" font-size="24" text-anchor="start" direction="ltr" writing-mode="lr-tb" unicode-bidi="normal" text-decoration="none" transform="matrix(0.689562 0 0 0.627624 77.7325 193)">...</text><text fill="#000000" fill-opacity="1" font-family="Arial,Arial_MSFontService,sans-serif" font-style="normal" font-variant="normal" font-weight="400" font-stretch="normal" font-size="24" text-anchor="start" direction="ltr" writing-mode="lr-tb" unicode-bidi="normal" text-decoration="none" transform="matrix(0.689562 0 0 0.627624 159.853 193)">...</text><text fill="#000000" fill-opacity="1" font-family="Arial,Arial_MSFontService,sans-serif" font-style="normal" font-variant="normal" font-weight="400" font-stretch="normal" font-size="24" text-anchor="start" direction="ltr" writing-mode="lr-tb" unicode-bidi="normal" text-decoration="none" transform="matrix(0.689562 0 0 0.627624 242.412 193)">...</text></g></g></svg>