<?xml version="1.0" encoding="UTF-8"?>
<svg id="_图层_1" data-name="图层_1" xmlns="http://www.w3.org/2000/svg" xmlns:xlink="http://www.w3.org/1999/xlink" version="1.1" viewBox="0 0 418 281">
  <!-- Generator: Adobe Illustrator 29.1.0, SVG Export Plug-In . SVG Version: 2.1.0 Build 142)  -->
  <defs>
    <style>
      .st0, .st1, .st2, .st3, .st4, .st5 {
        fill: none;
      }

      .st6, .st7, .st8, .st9, .st10 {
        isolation: isolate;
      }

      .st6, .st9 {
        font-size: 7.5px;
      }

      .st6, .st10 {
        font-family: AdobeSongStd-Light-GBpc-EUC-H, 'Adobe Song Std';
        font-weight: 300;
      }

      .st11 {
        fill: #1565c0;
      }

      .st12 {
        fill: #8e24aa;
      }

      .st13 {
        fill: #c8e6c9;
      }

      .st13, .st14, .st1, .st2, .st15, .st4, .st5 {
        stroke-width: 1.3px;
      }

      .st13, .st16, .st1 {
        stroke: #388e3c;
      }

      .st14 {
        fill: #e1bee7;
      }

      .st14, .st4 {
        stroke: #8e24aa;
      }

      .st16 {
        fill: #a5d6a7;
      }

      .st16, .st3, .st17, .st18, .st19, .st20, .st21, .st22, .st23 {
        stroke-width: .6px;
      }

      .st24 {
        fill: #388e3c;
      }

      .st2, .st3 {
        stroke-dasharray: 3.1 1.9;
      }

      .st2, .st18 {
        stroke: #1565c0;
      }

      .st3 {
        stroke: #091707;
      }

      .st17 {
        fill: #fff176;
      }

      .st17, .st19 {
        stroke: #ffa000;
      }

      .st18 {
        fill: #90caf9;
      }

      .st19 {
        fill: #fff59d;
      }

      .st15 {
        fill: #ffecb3;
      }

      .st15, .st5 {
        stroke: #ff9800;
      }

      .st7 {
        font-family: Arial-BoldMT, Arial;
        font-weight: 700;
      }

      .st7, .st10 {
        font-size: 8.8px;
      }

      .st25 {
        fill: #ff9800;
      }

      .st26 {
        clip-path: url(#clippath-1);
      }

      .st20 {
        fill: #ffb74d;
      }

      .st20, .st21 {
        stroke: #e65100;
      }

      .st27 {
        fill: #f8f9fa;
      }

      .st8 {
        font-size: 15.1px;
      }

      .st8, .st9 {
        font-family: ArialMT, Arial;
      }

      .st21 {
        fill: #ffcc80;
      }

      .st22 {
        fill: #c5e1a5;
      }

      .st22, .st23 {
        stroke: #558b2f;
      }

      .st23 {
        fill: #aed581;
      }

      .st28 {
        clip-path: url(#clippath);
      }
    </style>
    <clipPath id="clippath">
      <rect class="st0" width="418" height="281"/>
    </clipPath>
    <clipPath id="clippath-1">
      <rect class="st0" width="418" height="281"/>
    </clipPath>
  </defs>
  <g class="st28">
    <g class="st26">
      <g>
        <path class="st27" d="M0-32.8h501.5v313.8H0V-32.8Z"/>
        <text class="st7" transform="translate(31.3 11)"><tspan x="0" y="0">Input features (1, 10):</tspan></text>
        <path class="st18" d="M31.3,17.4h25.1v25.1h-25.1v-25.1Z"/>
        <path class="st18" d="M56.4,17.4h25.1v25.1h-25.1v-25.1Z"/>
        <path class="st18" d="M81.5,17.4h25.1v25.1h-25.1v-25.1Z"/>
        <path class="st18" d="M106.6,17.4h25.1v25.1h-25.1v-25.1Z"/>
        <path class="st18" d="M131.6,17.4h25.1v25.1h-25.1v-25.1Z"/>
        <path class="st18" d="M156.7,17.4h25.1v25.1h-25.1v-25.1Z"/>
        <path class="st18" d="M181.8,17.4h25.1v25.1h-25.1v-25.1Z"/>
        <path class="st18" d="M206.9,17.4h25.1v25.1h-25.1v-25.1Z"/>
        <path class="st18" d="M231.9,17.4h25.1v25.1h-25.1v-25.1Z"/>
        <path class="st18" d="M257,17.4h25.1v25.1h-25.1v-25.1Z"/>
        <text class="st9" transform="translate(41.8 33)"><tspan x="0" y="0">0</tspan></text>
        <text class="st9" transform="translate(66.9 33)"><tspan x="0" y="0">1</tspan></text>
        <text class="st9" transform="translate(92 33)"><tspan x="0" y="0">2</tspan></text>
        <text class="st9" transform="translate(117 33)"><tspan x="0" y="0">3</tspan></text>
        <text class="st9" transform="translate(142.1 33)"><tspan x="0" y="0">4</tspan></text>
        <text class="st9" transform="translate(167.2 33)"><tspan x="0" y="0">5</tspan></text>
        <text class="st9" transform="translate(192.3 33)"><tspan x="0" y="0">6</tspan></text>
        <text class="st9" transform="translate(217.3 33)"><tspan x="0" y="0">7</tspan></text>
        <text class="st9" transform="translate(242.4 33)"><tspan x="0" y="0">8</tspan></text>
        <text class="st9" transform="translate(267.5 33)"><tspan x="0" y="0">9</tspan></text>
        <text class="st7" transform="translate(166.4 63)"><tspan x="0" y="0">Kernel-Gen Net</tspan></text>
        <path class="st15" d="M180.2,73.9c3.5,0,6.3,2.8,6.3,6.3v50.2c0,3.5-2.8,6.3-6.3,6.3h-112.8c-3.5,0-6.3-2.8-6.3-6.3v-50.2c0-3.5,2.8-6.3,6.3-6.3h112.8Z"/>
        <text class="st9" transform="translate(101.2 90)"><tspan x="0" y="0">1D Conv (</tspan></text>
        <text class="st6" transform="translate(135.1 90)"><tspan x="0" y="0">降维</tspan></text>
        <text class="st9" transform="translate(150.1 90)"><tspan x="0" y="0">)</tspan></text>
        <text class="st9" transform="translate(90.6 102)"><tspan x="0" y="0">BatchNorm + Swish</tspan></text>
        <text class="st9" transform="translate(102.7 115)"><tspan x="0" y="0">Dropout(0.2)</tspan></text>
        <text class="st9" transform="translate(95.9 127)"><tspan x="0" y="0" xml:space="preserve"> 1D Conv (</tspan></text>
        <text class="st6" transform="translate(132.3 127)"><tspan x="0" y="0">生成核</tspan></text>
        <text class="st9" transform="translate(154.8 127)"><tspan x="0" y="0">)</tspan></text>
        <path class="st11" d="M156.7,73.9l-3.1-6.3h6.3l-3.1,6.3Z"/>
        <path class="st5" d="M120.9,136.6v15.8"/>
        <path class="st25" d="M120.9,157.9l-3.1-5.5h6.3l-3.1,5.5Z"/>
        <path class="st17" d="M9.4,180.6h21.9v22H9.4v-22Z"/>
        <path class="st19" d="M31.3,180.6h21.9v22h-21.9v-22Z"/>
        <path class="st17" d="M53.3,180.6h21.9v22h-21.9v-22Z"/>
        <text class="st6" transform="translate(29 174)"><tspan x="0" y="0">位置</tspan></text>
        <text class="st9" transform="translate(44 174)"><tspan x="0" y="0">2</tspan></text>
        <text class="st6" transform="translate(48.2 174)"><tspan x="0" y="0">的核</tspan></text>
        <path class="st20" d="M90.9,180.6h21.9v22h-21.9v-22Z"/>
        <path class="st21" d="M112.8,180.6h21.9v22h-21.9v-22Z"/>
        <path class="st20" d="M134.8,180.6h21.9v22h-21.9v-22Z"/>
        <text class="st6" transform="translate(110.5 174)"><tspan x="0" y="0">位置</tspan></text>
        <text class="st9" transform="translate(125.5 174)"><tspan x="0" y="0">5</tspan></text>
        <text class="st6" transform="translate(129.7 174)"><tspan x="0" y="0">的核</tspan></text>
        <path class="st23" d="M172.4,180.6h21.9v22h-21.9v-22Z"/>
        <path class="st22" d="M194.3,180.6h21.9v22h-21.9v-22Z"/>
        <path class="st23" d="M216.3,180.6h21.9v22h-21.9v-22Z"/>
        <text class="st6" transform="translate(191.9 174)"><tspan x="0" y="0">位置</tspan></text>
        <text class="st9" transform="translate(207 174)"><tspan x="0" y="0">8</tspan></text>
        <text class="st6" transform="translate(211.2 174)"><tspan x="0" y="0">的核</tspan></text>
        <text class="st7" transform="translate(335.4 76)"><tspan x="0" y="0">extract_patches</tspan></text>
        <path class="st14" d="M388.7,88.8c3.5,0,6.3,2.8,6.3,6.3v37.7c0,3.5-2.8,6.3-6.3,6.3h-112.8c-3.5,0-6.3-2.8-6.3-6.3v-37.7c0-3.5,2.8-6.3,6.3-6.3h112.8Z"/>
        <text class="st6" transform="translate(275.4 109)"><tspan x="0" y="0">对每个位置提取</tspan></text>
        <text class="st9" transform="translate(328 109)"><tspan x="0" y="0">kernel_size</tspan></text>
        <text class="st6" transform="translate(366.1 109)"><tspan x="0" y="0">大小的</tspan></text>
        <text class="st6" transform="translate(296 127)"><tspan x="0" y="0">局部区域</tspan></text>
        <text class="st9" transform="translate(326.1 127)"><tspan x="0" y="0" xml:space="preserve"> (</tspan></text>
        <text class="st6" transform="translate(330.7 127)"><tspan x="0" y="0">窗口大小</tspan></text>
        <text class="st9" transform="translate(360.8 127)"><tspan x="0" y="0">=3)</tspan></text>
        <path class="st2" d="M332.2,63.7v25.1"/>
        <path class="st11" d="M332.2,88.8l-3.1-6.3h6.3l-3.1,6.3Z"/>
        <path class="st4" d="M332.2,139v18.8"/>
        <path class="st12" d="M332.2,157.9l-3.1-6.3h6.3l-3.1,6.3Z"/>
        <text class="st7" transform="translate(338.9 230)"><tspan x="0" y="0">Involution</tspan></text>
        <path class="st13" d="M390.1,158.9c3.5,0,6.3,2.8,6.3,6.3v43.9c0,3.5-2.8,6.3-6.3,6.3h-112.8c-3.5,0-6.3-2.8-6.3-6.3v-43.9c0-3.5,2.8-6.3,6.3-6.3h112.8Z"/>
        <text class="st9" transform="translate(282.3 175)"><tspan x="0" y="0">1. </tspan></text>
        <text class="st6" transform="translate(290.6 175)"><tspan x="0" y="0">位置特定卷积核</tspan></text>
        <text class="st9" transform="translate(343.3 175)"><tspan x="0" y="0" xml:space="preserve"> × </tspan></text>
        <text class="st6" transform="translate(351.9 175)"><tspan x="0" y="0">局部区域</tspan></text>
        <text class="st9" transform="translate(282.3 189)"><tspan x="0" y="0">2. </tspan></text>
        <text class="st6" transform="translate(290.6 189)"><tspan x="0" y="0">沿</tspan></text>
        <text class="st9" transform="translate(298.1 189)"><tspan x="0" y="0">kernel_size</tspan></text>
        <text class="st6" transform="translate(336.2 189)"><tspan x="0" y="0">维度求和</tspan></text>
        <text class="st9" transform="translate(282.3 203)"><tspan x="0" y="0">3. </tspan></text>
        <text class="st6" transform="translate(290.6 203)"><tspan x="0" y="0">生成输出特征</tspan></text>
        <path class="st1" d="M332.2,215.5v29.1"/>
        <path class="st24" d="M332.2,244.7l-4.5-9.7h8.9l-4.5,9.7Z"/>
        <path class="st1" d="M120.9,212.4v14.6"/>
        <path class="st1" d="M120.9,227h211.4"/>
        <text class="st10" transform="translate(232.2 260)"><tspan x="0" y="0">输出特征</tspan></text>
        <text class="st7" transform="translate(267.3 260)"><tspan x="0" y="0">:</tspan></text>
        <path class="st16" d="M278.1,244.7h25.1v25.1h-25.1v-25.1Z"/>
        <path class="st16" d="M303.2,244.7h25.1v25.1h-25.1v-25.1Z"/>
        <path class="st16" d="M328.2,244.7h25.1v25.1h-25.1v-25.1Z"/>
        <path class="st16" d="M353.3,244.7h25.1v25.1h-25.1v-25.1Z"/>
        <text class="st9" transform="translate(288.5 260)"><tspan x="0" y="0">0</tspan></text>
        <text class="st9" transform="translate(313.6 260)"><tspan x="0" y="0">1</tspan></text>
        <text class="st9" transform="translate(338.6 260)"><tspan x="0" y="0">2</tspan></text>
        <text class="st9" transform="translate(363.7 260)"><tspan x="0" y="0">3</tspan></text>
        <path class="st2" d="M125.4,42.5v6.3h31.3v25.1"/>
        <path class="st2" d="M188.1,42.5v6.3h144.2v25.1"/>
        <path class="st3" d="M2.8,157.9h254.2v54H2.8v-54Z"/>
        <text class="st8" transform="translate(77.7 193) scale(1.1 1)"><tspan x="0" y="0">...</tspan></text>
        <text class="st8" transform="translate(159.9 193) scale(1.1 1)"><tspan x="0" y="0">...</tspan></text>
        <text class="st8" transform="translate(242.4 193) scale(1.1 1)"><tspan x="0" y="0">...</tspan></text>
      </g>
    </g>
  </g>
</svg>